<svg width="117" height="10" viewBox="0 0 117 10" fill="none"  xmlns="http://www.w3.org/2000/svg">
<path d="M6.292 0.684L2.692 9.576H0.952L4.54 0.684H6.292ZM41.6993 9.144C40.9633 9.144 40.2913 9.088 39.6833 8.976C39.0753 8.872 38.5633 8.736 38.1473 8.568C37.7313 8.4 37.3633 8.192 37.0433 7.944C36.7233 7.696 36.4753 7.448 36.2993 7.2C36.1153 6.952 35.9633 6.688 35.8433 6.408C35.7233 6.112 35.6473 5.848 35.6153 5.616C35.5753 5.384 35.5553 5.152 35.5553 4.92V4.596C35.5553 4.228 35.5913 3.884 35.6633 3.564C35.7353 3.236 35.8993 2.872 36.1553 2.472C36.4193 2.072 36.7593 1.732 37.1753 1.452C37.5993 1.164 38.1993 0.924 38.9753 0.732C39.7513 0.532 40.6593 0.431999 41.6993 0.431999H42.2033C43.2113 0.431999 44.1033 0.516 44.8793 0.684C45.6553 0.852 46.2553 1.06 46.6793 1.308C47.0953 1.548 47.4393 1.832 47.7113 2.16C47.9753 2.48 48.1473 2.764 48.2273 3.012C48.3073 3.268 48.3473 3.512 48.3473 3.744V3.864H45.2993C45.2753 3.776 45.2433 3.696 45.2033 3.624C45.1553 3.544 45.0633 3.428 44.9273 3.276C44.7673 3.116 44.5793 2.984 44.3633 2.88C44.1393 2.776 43.8193 2.68 43.4033 2.592C42.9793 2.504 42.4913 2.46 41.9393 2.46C41.2833 2.46 40.7233 2.524 40.2593 2.652C39.7953 2.78 39.4473 2.952 39.2153 3.168C38.9833 3.392 38.8153 3.62 38.7113 3.852C38.6153 4.1 38.5673 4.364 38.5673 4.644V4.788C38.5673 5.06 38.6233 5.32 38.7353 5.568C38.8473 5.824 39.0193 6.072 39.2513 6.312C39.4913 6.544 39.8473 6.732 40.3193 6.876C40.7913 7.02 41.3393 7.092 41.9633 7.092C43.8513 7.092 44.9633 6.604 45.2993 5.628C45.3073 5.612 45.3113 5.604 45.3113 5.604H48.3593V5.724C48.3513 5.98 48.3073 6.236 48.2273 6.492C48.1393 6.756 47.9593 7.052 47.6873 7.38C47.4153 7.708 47.0673 7.996 46.6433 8.244C46.2193 8.492 45.6193 8.704 44.8433 8.88C44.0753 9.056 43.1953 9.144 42.2033 9.144H41.6993ZM56.2067 8.076C55.9987 8.308 55.6507 8.524 55.1627 8.724C54.6747 8.916 54.0067 9.012 53.1587 9.012H53.0027C51.9627 9.012 51.1907 8.828 50.6867 8.46C50.1827 8.084 49.9307 7.608 49.9307 7.032V6.96C49.9307 6.4 50.1427 5.98 50.5667 5.7C50.9987 5.412 51.7107 5.228 52.7027 5.148L55.7147 4.884C55.9947 4.86 56.1347 4.756 56.1347 4.572C56.1347 4.476 56.1107 4.396 56.0627 4.332C55.9907 4.276 55.8267 4.22 55.5707 4.164C55.2987 4.108 54.9147 4.08 54.4187 4.08H54.3587C54.0467 4.08 53.7787 4.096 53.5547 4.128C53.3307 4.168 53.1627 4.208 53.0507 4.248C52.9387 4.296 52.8507 4.356 52.7867 4.428C52.7147 4.508 52.6707 4.564 52.6547 4.596C52.6467 4.644 52.6387 4.696 52.6307 4.752H50.0867V4.728C50.0867 4.528 50.1027 4.356 50.1347 4.212C50.1747 4.052 50.2707 3.872 50.4227 3.672C50.5747 3.472 50.7827 3.304 51.0467 3.168C51.3187 3.032 51.7067 2.916 52.2107 2.82C52.7227 2.732 53.3267 2.688 54.0227 2.688H54.7067C55.4427 2.688 56.0707 2.728 56.5907 2.808C57.1187 2.888 57.5187 2.988 57.7907 3.108C58.0707 3.228 58.2867 3.384 58.4387 3.576C58.5987 3.768 58.6947 3.94 58.7267 4.092C58.7587 4.244 58.7747 4.428 58.7747 4.644V6.96C58.7747 7.16 58.8907 7.26 59.1227 7.26H59.4707V8.904H57.2507C56.6587 8.904 56.3107 8.628 56.2067 8.076ZM56.1347 6.024L53.5307 6.396C53.1627 6.452 52.9027 6.516 52.7507 6.588C52.6067 6.676 52.5347 6.8 52.5347 6.96V6.972C52.5427 7.156 52.6347 7.316 52.8107 7.452C53.0027 7.588 53.3107 7.656 53.7347 7.656C54.4387 7.656 55.0147 7.512 55.4627 7.224C55.9107 6.928 56.1347 6.592 56.1347 6.216V6.024ZM64.0363 8.94H61.3003V2.88H64.0123V3.948C64.1323 3.788 64.2763 3.632 64.4443 3.48C64.6203 3.32 64.9123 3.16 65.3203 3C65.7283 2.832 66.1843 2.748 66.6883 2.748H66.8203C67.7323 2.748 68.4083 2.992 68.8483 3.48C69.2883 3.968 69.5083 4.624 69.5083 5.448V5.796H66.8683C66.8683 5.372 66.7563 5.024 66.5323 4.752C66.3083 4.48 65.9563 4.344 65.4763 4.344H65.4643C65.0163 4.344 64.6643 4.488 64.4083 4.776C64.1603 5.056 64.0363 5.4 64.0363 5.808V8.94ZM78.8939 0.516H81.6419V8.892H78.9179V7.968C78.8459 8.056 78.7419 8.148 78.6059 8.244C78.4619 8.348 78.2659 8.464 78.0179 8.592C77.7619 8.72 77.4259 8.828 77.0099 8.916C76.5939 8.996 76.1419 9.036 75.6539 9.036H75.4979C74.1059 9.036 73.0619 8.748 72.3659 8.172C71.6779 7.588 71.3339 6.84 71.3339 5.928V5.712C71.3339 4.824 71.6619 4.1 72.3179 3.54C72.9739 2.972 73.9939 2.688 75.3779 2.688H75.5819C76.9979 2.688 78.1019 3.008 78.8939 3.648V0.516ZM78.8939 5.832C78.8939 5.416 78.6659 5.056 78.2099 4.752C77.7619 4.44 77.1539 4.284 76.3859 4.284H76.3259C75.5339 4.284 74.9699 4.432 74.6339 4.728C74.2979 5.016 74.1299 5.384 74.1299 5.832V5.88C74.1299 6.296 74.3139 6.66 74.6819 6.972C75.0499 7.284 75.6059 7.44 76.3499 7.44H76.4099C77.1779 7.44 77.7819 7.284 78.2219 6.972C78.6699 6.66 78.8939 6.296 78.8939 5.88V5.832ZM116.28 0.684L112.68 9.576H110.94L114.528 0.684H116.28Z" fill="black"/>
</svg>
